<svg width="149" height="144" viewBox="0 0 149 144" fill="none" xmlns="http://www.w3.org/2000/svg">
<g style="mix-blend-mode:luminosity">
<path d="M139.307 68.3316C184.108 -24.5498 -42.8994 -12.7021 11.4652 67.9951C12.1732 69.0459 12.6329 70.3344 12.6231 71.6014C12.5431 81.9076 12.1917 130.345 12.6383 131.686C13.1382 133.186 16.328 140.445 23.1383 140.186H129.451C129.903 140.186 130.363 140.137 130.801 140.026C134.846 138.995 136.793 137.422 138.382 132.515C138.559 131.969 138.638 131.394 138.638 130.82V71.1154C138.638 70.1754 138.899 69.1783 139.307 68.3316Z" fill="#EAE2D7" stroke="#CBC3B8" stroke-width="6"/>
<path d="M123.876 69.9264C161.344 -8.32157 -20.5185 1.88143 25.5235 69.9264C25.5235 69.9264 25.1333 119.758 25.5235 120.993C25.9136 122.229 28.4036 128.208 33.7195 127.994H117.241C120.935 127.1 122.532 125.807 123.876 120.993V69.9264Z" fill="#F8F0E5"/>
</g>
</svg>
